<svg width="52" height="90" viewBox="0 0 52 90" fill="none" xmlns="http://www.w3.org/2000/svg">
<g id="Group 5">
<path id="Vector" d="M25.9851 88.9871C12.186 88.9871 1 76.522 1 61.1449V28.9076C1 13.5306 12.186 1.06543 25.9851 1.06543C39.7842 1.06543 50.9702 13.5306 50.9702 28.9076V61.1449C50.9702 76.522 39.7842 88.9871 25.9851 88.9871Z" stroke="black" stroke-width="2" stroke-miterlimit="10"/>
<path id="Vector_2" d="M32.9297 50.9259C33.336 50.8027 33.7911 50.7339 34.3123 50.7339C38.476 50.7339 38.476 55.2137 42.6412 55.2137C46.8049 55.2137 46.8049 50.7339 50.97 50.7339" stroke="black" stroke-width="2" stroke-miterlimit="10"/>
<path id="Vector_3" d="M1 50.7324C5.1637 50.7324 5.1637 55.2123 9.32741 55.2123C13.4911 55.2123 13.4911 50.7324 17.6548 50.7324C18.1085 50.7324 18.5134 50.7852 18.8781 50.8796" stroke="black" stroke-width="2" stroke-miterlimit="10"/>
<path id="Vector_4" d="M30.647 39.3395C31.5458 38.4211 32.5608 37.626 34.3125 37.626C38.4762 37.626 38.4762 42.1058 42.6413 42.1058C46.805 42.1058 46.805 37.626 50.9702 37.626" stroke="black" stroke-width="2" stroke-miterlimit="10"/>
<path id="Vector_5" d="M1 37.626C5.1637 37.626 5.1637 42.1058 9.32741 42.1058C13.4911 42.1058 13.4911 37.626 17.6548 37.626C19.4093 37.626 20.4244 38.4211 21.3232 39.3411" stroke="black" stroke-width="2" stroke-miterlimit="10"/>
<path id="Vector_6" d="M32.1475 44.6976C32.7347 44.3808 33.431 44.1792 34.3126 44.1792C38.4763 44.1792 38.4763 48.659 42.6414 48.659C46.8051 48.659 46.8051 44.1792 50.9703 44.1792" stroke="black" stroke-width="2" stroke-miterlimit="10"/>
<path id="Vector_7" d="M1 44.1792C5.1637 44.1792 5.1637 48.659 9.3274 48.659C13.4911 48.659 13.4911 44.1792 17.6548 44.1792C18.5378 44.1792 19.2341 44.3808 19.8214 44.6976" stroke="black" stroke-width="2" stroke-miterlimit="10"/>
<path id="Vector_8" d="M33.2844 55.297C33.2844 62.7927 31.626 69.8564 28.6928 76.0562H23.2771C20.3453 69.8564 18.6855 62.7927 18.6855 55.297C18.6855 46.2013 21.1292 37.7408 25.3245 30.6882C25.6375 30.1619 26.3324 30.1619 26.6454 30.6882C30.8421 37.7408 33.2844 46.2013 33.2844 55.297Z" stroke="black" stroke-width="2" stroke-miterlimit="10"/>
<path id="Vector_9" d="M32.7993 62.2632C38.9731 63.1 44.8353 65.0631 50.2136 67.9654" stroke="black" stroke-width="2" stroke-miterlimit="10"/>
<path id="Vector_10" d="M1.76367 67.9991C7.13916 65.0904 12.9999 63.1177 19.1723 62.2729" stroke="black" stroke-width="2" stroke-miterlimit="10"/>
<path id="Vector_11" d="M28.7463 34.6498C30.4951 33.341 31.3494 31.0723 34.3128 31.0723C36.6976 31.0723 37.7155 32.5411 38.933 33.7954C38.933 33.7954 39.6523 30.6163 39.6523 28.9076C39.6523 20.4967 33.5331 13.6777 25.9854 13.6777C18.4376 13.6777 12.3184 20.4967 12.3184 28.9076C12.3184 30.6179 12.5711 32.2611 13.0377 33.7954C13.0377 33.7954 15.2732 31.0723 17.6565 31.0723C20.6214 31.0723 21.4756 33.3426 23.223 34.6514" stroke="black" stroke-width="2" stroke-miterlimit="10"/>
<path id="Vector_12" d="M31.5644 76.0562H28.6929" stroke="black" stroke-width="2" stroke-miterlimit="10" stroke-linecap="round"/>
<path id="Vector_13" d="M23.2773 76.0562H20.4072" stroke="black" stroke-width="2" stroke-miterlimit="10" stroke-linecap="round"/>
<path id="Vector_14" d="M18.9512 60.457L25.9964 52.6045L33.0302 60.4426" stroke="black" stroke-width="2" stroke-miterlimit="10"/>
<path id="Vector_15" d="M25.9966 52.6045V76.0565" stroke="black" stroke-width="2" stroke-miterlimit="10"/>
</g>
</svg>
