<svg width="84" height="113" viewBox="0 0 84 113" fill="none" xmlns="http://www.w3.org/2000/svg">
<g id="Group 51">
<path id="Vector" d="M41.8496 111.131C19.841 111.131 2 95.6587 2 76.5723V36.5585C2 17.4721 19.841 2 41.8496 2C63.8583 2 81.6993 17.4721 81.6993 36.5585V76.5723C81.6993 95.6587 63.8583 111.131 41.8496 111.131Z" stroke="white" stroke-width="3" stroke-miterlimit="10"/>
<path id="Vector_2" d="M52.9263 63.8885C53.5743 63.7355 54.3002 63.6501 55.1315 63.6501C61.7723 63.6501 61.7723 69.2106 68.4155 69.2106C75.0563 69.2106 75.0563 63.6501 81.6994 63.6501" stroke="white" stroke-width="3" stroke-miterlimit="10"/>
<path id="Vector_3" d="M2 63.6481C8.64084 63.6481 8.64084 69.2086 15.2817 69.2086C21.9225 69.2086 21.9225 63.6481 28.5634 63.6481C29.287 63.6481 29.9328 63.7136 30.5144 63.8308" stroke="white" stroke-width="3" stroke-miterlimit="10"/>
<path id="Vector_4" d="M49.2852 49.5065C50.7187 48.3666 52.3377 47.3796 55.1314 47.3796C61.7722 47.3796 61.7722 52.9401 68.4154 52.9401C75.0562 52.9401 75.0562 47.3796 81.6993 47.3796" stroke="white" stroke-width="3" stroke-miterlimit="10"/>
<path id="Vector_5" d="M2 47.3796C8.64084 47.3796 8.64084 52.9401 15.2817 52.9401C21.9225 52.9401 21.9225 47.3796 28.5634 47.3796C31.3617 47.3796 32.9807 48.3666 34.4142 49.5085" stroke="white" stroke-width="3" stroke-miterlimit="10"/>
<path id="Vector_6" d="M51.6782 56.1572C52.6148 55.764 53.7254 55.5138 55.1315 55.5138C61.7723 55.5138 61.7723 61.0743 68.4154 61.0743C75.0563 61.0743 75.0563 55.5138 81.6994 55.5138" stroke="white" stroke-width="3" stroke-miterlimit="10"/>
<path id="Vector_7" d="M2 55.5138C8.64084 55.5138 8.64084 61.0743 15.2817 61.0743C21.9225 61.0743 21.9225 55.5138 28.5634 55.5138C29.9717 55.5138 31.0823 55.764 32.0189 56.1572" stroke="white" stroke-width="3" stroke-miterlimit="10"/>
<path id="Vector_8" d="M53.4917 69.3139C53.4917 78.6178 50.8468 87.3855 46.1684 95.0808H37.5308C32.8547 87.3855 30.2075 78.6178 30.2075 69.3139C30.2075 58.024 34.105 47.5226 40.7962 38.7688C41.2954 38.1155 42.4038 38.1155 42.903 38.7688C49.5965 47.5226 53.4917 58.024 53.4917 69.3139Z" stroke="white" stroke-width="3" stroke-miterlimit="10"/>
<path id="Vector_9" d="M52.7178 77.9603C62.5645 78.9989 71.9144 81.4356 80.4925 85.0381" stroke="white" stroke-width="3" stroke-miterlimit="10"/>
<path id="Vector_10" d="M3.21826 85.0798C11.7918 81.4694 21.1394 79.0208 30.9839 77.9723" stroke="white" stroke-width="3" stroke-miterlimit="10"/>
<path id="Vector_11" d="M46.2533 43.6859C49.0425 42.0614 50.405 39.2454 55.1314 39.2454C58.935 39.2454 60.5586 41.0685 62.5005 42.6254C62.5005 42.6254 63.6477 38.6794 63.6477 36.5585C63.6477 26.1187 53.888 17.6548 41.8497 17.6548C29.8115 17.6548 20.0518 26.1187 20.0518 36.5585C20.0518 38.6814 20.4548 40.7209 21.199 42.6254C21.199 42.6254 24.7645 39.2454 28.5658 39.2454C33.2945 39.2454 34.657 42.0634 37.4439 43.6879" stroke="white" stroke-width="3" stroke-miterlimit="10"/>
<path id="Vector_12" d="M50.7483 95.0808H46.1685" stroke="white" stroke-width="3" stroke-miterlimit="10" stroke-linecap="round"/>
<path id="Vector_13" d="M37.5307 95.0808H32.9531" stroke="white" stroke-width="3" stroke-miterlimit="10" stroke-linecap="round"/>
<path id="Vector_14" d="M30.6313 75.7183L41.8681 65.9716L53.0866 75.7005" stroke="white" stroke-width="3" stroke-miterlimit="10"/>
<path id="Vector_15" d="M41.8682 65.9716V95.0808" stroke="white" stroke-width="3" stroke-miterlimit="10"/>
</g>
</svg>
